<svg width="105" height="35" viewBox="0 0 105 35" fill="none" xmlns="http://www.w3.org/2000/svg">
<path fill-rule="evenodd" clip-rule="evenodd" d="M99.9279 27.7644C92.5851 34.839 83.3333 33.5656 77.7528 28.1888C72.1723 22.8121 70.8506 13.898 78.1933 6.82339C85.5361 -0.251267 94.788 1.02217 100.368 6.39891C105.949 11.7756 107.271 20.6897 99.9279 27.7644ZM96.4034 24.3685C100.809 20.1237 100.662 14.0395 96.5502 10.0777C92.4383 6.11592 86.1235 5.97443 81.7179 10.2192C77.3122 14.464 77.4591 20.5482 81.571 24.51C85.6829 28.4718 91.9977 28.6133 96.4034 24.3685Z" fill="#0E1837"/>
<path d="M43.2769 30.9811V2.2743H48.5524V15.5614L62.5528 2.23329H69.6544L57.2773 14.1261L69.2486 30.9401H63.1615L53.625 17.6119L48.5524 22.5331V30.9811H43.2769Z" fill="#0E1837"/>
<path d="M15.7048 35L15.8489 34.017C15.951 33.3252 16.1071 32.5849 16.3173 31.7961C16.5214 31.0073 16.7346 30.264 16.9568 29.5661C17.1789 28.8683 17.3621 28.3131 17.5062 27.9005H19.1274C19.0493 28.2888 18.9472 28.8016 18.8212 29.4387C18.6951 30.0758 18.569 30.7888 18.4429 31.5777C18.3108 32.3604 18.2027 33.1614 18.1186 33.9806L18.0105 35H15.7048Z" fill="#0E1837"/>
<path d="M10.4325 33.64L10.8701 32.7501C11.1787 32.1241 11.5536 31.4688 11.9946 30.7842C12.43 30.0977 12.8601 29.4573 13.2847 28.8631C13.7094 28.2688 14.0534 27.7979 14.3166 27.4505L15.8585 27.9568C15.6655 28.3017 15.4116 28.7575 15.0968 29.3241C14.7821 29.8907 14.4441 30.5294 14.083 31.2402C13.718 31.9434 13.3703 32.6714 13.0399 33.4243L12.6253 34.36L10.4325 33.64Z" fill="#0E1837"/>
<path d="M5.83403 30.7001L6.52237 29.9905C7.0073 29.4915 7.56418 28.9853 8.19302 28.4719C8.817 27.955 9.4218 27.4803 10.0074 27.0477C10.593 26.6151 11.0641 26.2747 11.4207 26.0265L12.7323 26.9895C12.4433 27.2573 12.0625 27.6115 11.5899 28.0521C11.1173 28.4926 10.6006 28.9945 10.0397 29.5578C9.47756 30.1126 8.92425 30.6964 8.37978 31.3092L7.6994 32.0697L5.83403 30.7001Z" fill="#0E1837"/>
<path d="M2.35965 26.4682L3.23131 26.0082C3.84509 25.685 4.5295 25.3775 5.28454 25.0857C6.03604 24.7889 6.75641 24.5263 7.44564 24.2978C8.13486 24.0692 8.68699 23.8926 9.10203 23.7679L10.055 25.0933C9.69818 25.2578 9.2277 25.4757 8.64352 25.7471C8.05934 26.0185 7.41443 26.3345 6.70881 26.6951C6.00451 27.0472 5.29976 27.4296 4.59455 27.8424L3.71492 28.3532L2.35965 26.4682Z" fill="#0E1837"/>
<path d="M0.349366 21.3583L1.31902 21.193C2.00157 21.0773 2.74651 20.9986 3.55384 20.9568C4.35931 20.9093 5.12473 20.8845 5.8501 20.8824C6.57548 20.8802 7.15459 20.8847 7.58745 20.8957L8.08843 22.4538C7.69883 22.4988 7.18474 22.5592 6.54616 22.6349C5.90758 22.7106 5.19761 22.8097 4.41627 22.9323C3.63877 23.0472 2.85157 23.1908 2.05466 23.3632L1.06188 23.5743L0.349366 21.3583Z" fill="#0E1837"/>
<path d="M0 15.8708L0.972731 16.0164C1.65724 16.1196 2.38979 16.2773 3.17038 16.4897C3.95097 16.696 4.68652 16.9114 5.37704 17.1359C6.06756 17.3605 6.61697 17.5455 7.02528 17.6912V19.3295C6.64099 19.2506 6.13361 19.1475 5.50313 19.02C4.87266 18.8926 4.16713 18.7652 3.38654 18.6378C2.61196 18.5043 1.81937 18.395 1.00876 18.3101L0 18.2009V15.8708Z" fill="#0E1837"/>
<path d="M1.3457 10.5427L2.22629 10.985C2.84576 11.2968 3.49422 11.6757 4.17166 12.1214C4.85095 12.5614 5.48463 12.9959 6.0727 13.4251C6.66077 13.8543 7.1267 14.2019 7.47049 14.4679L6.96951 16.026C6.62815 15.831 6.17714 15.5745 5.61649 15.2564C5.05584 14.9383 4.42381 14.5968 3.72039 14.2318C3.02454 13.863 2.30414 13.5116 1.55918 13.1777L0.633193 12.7588L1.3457 10.5427Z" fill="#0E1837"/>
<path d="M4.2549 5.89568L4.95715 6.59129C5.45093 7.08135 5.95181 7.64412 6.45979 8.2796C6.9713 8.91017 7.44109 9.52136 7.86914 10.1132C8.2972 10.705 8.63403 11.181 8.87966 11.5414L7.92673 12.8668C7.66171 12.5748 7.31123 12.1899 6.87529 11.7123C6.43934 11.2347 5.94267 10.7126 5.38528 10.1458C4.83628 9.57772 4.25858 9.01855 3.6522 8.46833L2.89962 7.78077L4.2549 5.89568Z" fill="#0E1837"/>
<path d="M8.44263 2.38458L8.8978 3.26546C9.21756 3.88572 9.52184 4.57736 9.81064 5.34038C10.1043 6.09983 10.3642 6.82781 10.5903 7.52432C10.8165 8.22083 10.9912 8.77879 11.1147 9.19821L9.80306 10.1612C9.64033 9.80066 9.42468 9.32521 9.15611 8.73485C8.88754 8.1445 8.57485 7.49278 8.21805 6.7797C7.86963 6.06796 7.4912 5.35577 7.08274 4.64311L6.57725 3.75418L8.44263 2.38458Z" fill="#0E1837"/>
<path d="M13.4991 0.353058L13.6626 1.33296C13.7771 2.02273 13.855 2.77554 13.8963 3.59139C13.9434 4.40537 13.9679 5.17888 13.97 5.91192C13.9721 6.64496 13.9677 7.2302 13.9568 7.66763L12.415 8.17391C12.3704 7.78019 12.3107 7.26066 12.2358 6.61533C12.1609 5.97 12.0628 5.25254 11.9415 4.46293C11.8278 3.67723 11.6857 2.88171 11.5151 2.07637L11.3062 1.0731L13.4991 0.353058Z" fill="#0E1837"/>
<path d="M18.9292 0L18.7851 0.98301C18.683 1.67476 18.5269 2.41505 18.3167 3.20388C18.1126 3.99272 17.8994 4.73604 17.6773 5.43386C17.4551 6.13167 17.272 6.68689 17.1278 7.09951H15.5066C15.5847 6.71116 15.6868 6.19842 15.8129 5.56129C15.939 4.92415 16.065 4.21117 16.1911 3.42233C16.3232 2.63956 16.4313 1.83859 16.5154 1.01942L16.6235 0H18.9292Z" fill="#0E1837"/>
<path d="M24.2015 1.35992L23.7639 2.24982C23.4553 2.87583 23.0805 3.53114 22.6394 4.21574C22.204 4.90221 21.774 5.54259 21.3493 6.13687C20.9246 6.73116 20.5807 7.20201 20.3174 7.54943L18.7756 7.04316C18.9686 6.69819 19.2224 6.24242 19.5372 5.67584C19.8519 5.10927 20.1899 4.47056 20.551 3.75971C20.916 3.0565 21.2637 2.32849 21.5942 1.57566L22.0087 0.639885L24.2015 1.35992Z" fill="#0E1837"/>
<path d="M28.8 4.29986L28.1116 5.00953C27.6267 5.50853 27.0698 6.01471 26.441 6.52806C25.817 7.04497 25.2122 7.51972 24.6266 7.9523C24.041 8.38487 23.5699 8.72527 23.2133 8.97349L21.9017 8.01049C22.1907 7.74268 22.5716 7.38849 23.0442 6.94794C23.5167 6.50739 24.0335 6.00547 24.5943 5.44219C25.1564 4.88738 25.7098 4.30358 26.2542 3.69079L26.9346 2.93026L28.8 4.29986Z" fill="#0E1837"/>
<path d="M32.2744 8.53184L31.4027 8.99182C30.7889 9.31497 30.1045 9.62246 29.3495 9.91431C28.598 10.2111 27.8776 10.4737 27.1884 10.7022C26.4991 10.9308 25.947 11.1074 25.532 11.2321L24.5791 9.90665C24.9358 9.7422 25.4063 9.52428 25.9905 9.25287C26.5747 8.98146 27.2196 8.66547 27.9252 8.30489C28.6295 7.95279 29.3342 7.57036 30.0395 7.15759L30.9191 6.64675L32.2744 8.53184Z" fill="#0E1837"/>
<path d="M34.2846 13.6417L33.315 13.807C32.6324 13.9227 31.8875 14.0014 31.0802 14.0432C30.2747 14.0907 29.5093 14.1155 28.7839 14.1176C28.0585 14.1198 27.4794 14.1153 27.0466 14.1043L26.5456 12.5462C26.9352 12.5012 27.4493 12.4408 28.0879 12.3651C28.7264 12.2894 29.4364 12.1903 30.2177 12.0677C30.9952 11.9528 31.7824 11.8092 32.5794 11.6368L33.5721 11.4257L34.2846 13.6417Z" fill="#0E1837"/>
<path d="M34.634 19.1292L33.6613 18.9836C32.9768 18.8804 32.2442 18.7227 31.4636 18.5103C30.683 18.304 29.9475 18.0886 29.257 17.8641C28.5665 17.6395 28.017 17.4545 27.6087 17.3088V15.6705C27.993 15.7494 28.5004 15.8525 29.1309 15.98C29.7614 16.1074 30.4669 16.2348 31.2475 16.3622C32.022 16.4957 32.8146 16.605 33.6253 16.6899L34.634 16.7991V19.1292Z" fill="#0E1837"/>
<path d="M33.2882 24.4573L32.4076 24.015C31.7882 23.7032 31.1397 23.3243 30.4623 22.8786C29.783 22.4386 29.1493 22.0041 28.5612 21.5749C27.9732 21.1457 27.5072 20.7981 27.1635 20.5321L27.6644 18.974C28.0058 19.169 28.4568 19.4255 29.0175 19.7436C29.5781 20.0617 30.2101 20.4032 30.9136 20.7682C31.6094 21.137 32.3298 21.4884 33.0748 21.8223L34.0008 22.2412L33.2882 24.4573Z" fill="#0E1837"/>
<path d="M30.3791 29.1043L29.6769 28.4087C29.1831 27.9187 28.6822 27.3559 28.1742 26.7204C27.6627 26.0898 27.1929 25.4786 26.7649 24.8868C26.3368 24.295 26 23.819 25.7544 23.4586L26.7073 22.1332C26.9723 22.4252 27.3228 22.8101 27.7587 23.2877C28.1947 23.7653 28.6913 24.2874 29.2487 24.8542C29.7977 25.4223 30.3754 25.9814 30.9818 26.5317L31.7344 27.2192L30.3791 29.1043Z" fill="#0E1837"/>
<path d="M26.1914 32.6154L25.7362 31.7345C25.4165 31.1143 25.1122 30.4226 24.8234 29.6596C24.5297 28.9002 24.2698 28.1722 24.0437 27.4757C23.8175 26.7792 23.6428 26.2212 23.5194 25.8018L24.831 24.8388C24.9937 25.1993 25.2093 25.6748 25.4779 26.2651C25.7465 26.8555 26.0592 27.5072 26.416 28.2203C26.7644 28.932 27.1428 29.6442 27.5513 30.3569L28.0568 31.2458L26.1914 32.6154Z" fill="#0E1837"/>
<path d="M21.1349 34.6469L20.9714 33.667C20.8569 32.9773 20.779 32.2245 20.7377 31.4086C20.6907 30.5946 20.6661 29.8211 20.664 29.0881C20.6619 28.355 20.6663 27.7698 20.6772 27.3324L22.2191 26.8261C22.2636 27.2198 22.3233 27.7393 22.3982 28.3847C22.4731 29.03 22.5712 29.7475 22.6925 30.5371C22.8062 31.3228 22.9483 32.1183 23.1189 32.9236L23.3278 33.9269L21.1349 34.6469Z" fill="#0E1837"/>
</svg>
